<svg width="222" height="222" viewBox="0 0 222 222" fill="none" xmlns="http://www.w3.org/2000/svg">
<g clip-path="url(#clip0_46_52)">
<circle cx="111" cy="111" r="111" fill="black"/>
<path fill-rule="evenodd" clip-rule="evenodd" d="M110.929 39.3301C111.529 45.2699 113.04 60.6493 114.07 66.3496C118.22 84.9696 152.35 67.3905 161.05 109.73C162.314 116.929 166.595 123.299 172.337 127.521C174.862 129.377 177.043 131.925 177.049 135.06C177.07 147.878 167.896 159.356 155.515 162.296C151.284 163.301 146.899 162.197 142.551 162.085C129.532 161.75 117.426 170.626 117.52 185.021C118.856 216.405 160.304 210.332 178.796 198.894C160.043 213.379 136.529 222 111 222C91.3922 222 72.9726 216.915 56.9861 207.993C36.5268 172.811 41.2412 122.611 66.5047 91.3438C68.9874 88.271 71.119 84.923 72.8094 81.3525C81.0932 63.8544 94.4241 49.2152 110.929 39.3301ZM139.83 112.087C135.776 112.087 132.086 113.383 129.329 115.503L155.137 123.11C154.073 116.88 147.627 112.087 139.83 112.087Z" fill="white"/>
</g>
<defs>
<clipPath id="clip0_46_52">
<rect width="222" height="222" fill="white"/>
</clipPath>
</defs>
</svg>
