<svg width="222" height="222" viewBox="0 0 222 222" fill="none" xmlns="http://www.w3.org/2000/svg">
<g clip-path="url(#clip0_85_37)">
<path d="M111 0C172.304 0 222 49.6964 222 111C222 146.775 205.075 178.595 178.796 198.895V198.894C160.304 210.332 118.856 216.405 117.521 185.021C117.426 170.626 129.532 161.75 142.551 162.085C146.899 162.197 151.284 163.301 155.516 162.296C167.896 159.356 177.07 147.878 177.049 135.06C177.044 131.925 174.862 129.377 172.337 127.521C166.596 123.299 162.314 116.929 161.05 109.73C152.35 67.3905 118.22 84.9695 114.07 66.3496C113.04 60.6493 111.53 45.27 110.93 39.3301C94.4243 49.2152 81.0935 63.8544 72.8096 81.3525C71.1192 84.923 68.9876 88.271 66.5049 91.3438C41.2414 122.611 36.527 172.811 56.9863 207.993H56.9854C22.9902 189.021 0 152.696 0 111C0 49.6964 49.6964 0 111 0ZM139.83 112.087C147.627 112.087 154.074 116.88 155.137 123.11L129.329 115.503C132.087 113.383 135.776 112.087 139.83 112.087Z" fill="white"/>
<path fill-rule="evenodd" clip-rule="evenodd" d="M110.929 39.3301C111.529 45.2699 113.04 60.6493 114.07 66.3496C118.22 84.9696 152.35 67.3905 161.05 109.73C162.314 116.929 166.595 123.299 172.337 127.521C174.862 129.377 177.043 131.925 177.049 135.06C177.07 147.878 167.896 159.356 155.515 162.296C151.284 163.301 146.899 162.197 142.551 162.085C129.532 161.75 117.426 170.626 117.52 185.021C118.856 216.405 160.304 210.332 178.796 198.894C160.043 213.379 136.529 222 111 222C91.3922 222 72.9726 216.915 56.9861 207.993C36.5268 172.811 41.2412 122.611 66.5047 91.3438C68.9874 88.271 71.119 84.9231 72.8094 81.3525C81.0932 63.8544 94.4241 49.2152 110.929 39.3301ZM139.83 112.087C135.776 112.087 132.086 113.383 129.329 115.503L155.137 123.11C154.073 116.88 147.627 112.087 139.83 112.087Z" fill="black"/>
</g>
<defs>
<clipPath id="clip0_85_37">
<rect width="222" height="222" fill="white"/>
</clipPath>
</defs>
</svg>
